<svg width="378" height="380" xmlns="http://www.w3.org/2000/svg" xmlns:xlink="http://www.w3.org/1999/xlink" xml:space="preserve" overflow="hidden"><defs><clipPath id="clip0"><rect x="0" y="0" width="378" height="380"/></clipPath><clipPath id="clip1"><rect x="0" y="1" width="378" height="378"/></clipPath><clipPath id="clip2"><rect x="0" y="1" width="378" height="378"/></clipPath></defs><g clip-path="url(#clip0)"><g clip-path="url(#clip1)"><g clip-path="url(#clip2)"><path d="M412.815 282.771C397.64 261.321 376.232 245.061 351.496 236.199 374.256 227.442 394.333 212.89 409.736 193.983 411.089 192.291 410.815 189.822 409.123 188.468 407.431 187.115 404.961 187.389 403.608 189.081 382.827 214.289 353.642 231.145 321.423 236.549 325.557 224.146 330.801 212.14 337.092 200.679 361.665 195.662 383.314 181.263 397.441 160.54 398.653 158.744 398.18 156.306 396.384 155.094 394.588 153.882 392.15 154.355 390.938 156.151 390.933 156.159 390.928 156.166 390.923 156.174 379.376 173.132 362.303 185.557 342.617 191.33 354.189 172.502 368.567 155.551 385.254 141.061 386.891 139.643 387.07 137.167 385.653 135.53 384.235 133.893 381.759 133.714 380.122 135.132 348.551 162.443 325.194 197.992 312.659 237.811 297.174 239.576 281.497 238.511 266.394 234.666 266.087 234.605 265.773 234.584 265.461 234.604 262.801 229.278 258.336 225.068 252.863 222.726 254.741 216.258 256.643 209.548 258.529 202.682 283.443 164.533 317.885 133.549 358.448 112.795 360.377 111.809 361.142 109.446 360.156 107.517 359.17 105.588 356.807 104.823 354.878 105.809 335.469 115.777 317.344 128.068 300.902 142.411 309.847 122.17 312.535 99.7157 308.623 77.9342 308.221 75.8062 306.171 74.407 304.043 74.8089 301.915 75.2108 300.515 77.2616 300.917 79.3895 306.603 111.02 297.262 143.497 275.639 167.273 275.509 167.45 275.394 167.639 275.297 167.836 271.325 172.35 267.504 176.994 263.833 181.768 266.643 170.2 268.807 158.484 270.316 146.675 274.236 119.792 271.651 92.3598 262.778 66.6815 262.021 64.653 259.763 63.6224 257.734 64.3797 255.706 65.137 254.675 67.3953 255.432 69.4238 262.856 90.5999 265.61 113.132 263.506 135.472 247.615 116.426 238.732 92.5095 238.335 67.708 238.309 65.5601 236.561 63.8322 234.413 63.832L234.367 63.832C232.201 63.8575 230.466 65.634 230.491 67.7999 230.957 96.9787 242.372 124.917 262.473 146.073 258.745 171.402 252.988 196.39 245.258 220.797 238.667 219.746 231.94 221.526 226.732 225.699 218.819 214.722 211.658 203.224 205.297 191.281 215.849 158.629 219.036 124.044 214.627 90.0142 214.055 83.1063 212.123 76.3796 208.943 70.2206 207.86 68.3444 205.461 67.7014 203.585 68.7844 201.709 69.8674 201.066 72.2663 202.149 74.1426 204.789 79.4204 206.386 85.1579 206.852 91.0406 210.76 121.23 208.488 151.9 200.173 181.184 185.491 151.156 175.902 118.897 171.796 85.7246 171.534 83.5754 169.579 82.0459 167.43 82.3082 165.281 82.5704 163.751 84.5253 164.013 86.6744 166.958 110.339 172.633 133.583 180.925 155.942 159.184 146.558 140.222 131.74 125.863 112.91 124.56 111.182 122.102 110.837 120.374 112.14 118.646 113.443 118.301 115.9 119.604 117.629 135.762 139.057 157.592 155.537 182.627 165.205 183.079 165.377 183.558 165.465 184.041 165.465 184.203 165.465 184.334 165.347 184.493 165.327 188.212 174.497 192.413 183.461 196.994 192.239 196.913 193.614 197.579 194.926 198.736 195.672 205.294 207.917 212.674 219.703 220.824 230.951 220.912 231.073 221.052 231.12 221.151 231.228 218.738 234.656 217.278 238.663 216.921 242.84 212.526 243.996 208.081 245.175 203.585 246.378 203.34 246.046 203.042 245.757 202.704 245.52 190.108 237.455 176.917 230.358 163.246 224.291 163.236 224.235 163.255 224.182 163.244 224.126 159.033 207.038 149.677 191.656 136.441 180.058 123.63 168.843 109.425 159.33 94.1769 151.754 92.2572 150.749 89.8859 151.49 88.8806 153.41 87.8857 155.309 88.6001 157.656 90.4847 158.679 105.134 165.943 118.788 175.062 131.11 185.81 141.58 195.177 149.486 207.061 154.078 220.338 128.802 209.989 102.223 203.163 75.0881 200.05 72.934 199.814 70.9963 201.369 70.7602 203.523 70.5252 205.667 72.0648 207.599 74.2072 207.848 116.518 212.703 157.246 226.794 193.51 249.124 175.773 253.882 158.318 259.633 141.227 266.35 141.129 266.226 141.023 266.107 140.911 265.996 120.963 251.144 96.953 242.741 72.0969 241.912 70.0038 242.024 68.2965 243.629 68.0562 245.712 67.9918 247.878 69.6933 249.687 71.8594 249.756 93.6742 250.508 114.815 257.503 132.774 269.91 114.091 277.817 96.6163 288.32 80.8677 301.109 79.2051 302.495 78.9805 304.966 80.366 306.628 81.7515 308.291 84.2224 308.516 85.885 307.13 123.317 275.977 173.108 262.487 217.483 250.807 218.556 255.013 220.745 258.852 223.819 261.918 223.368 262.331 223.022 262.847 222.812 263.422 219.317 273.727 216.779 284.332 215.228 295.102 215.217 295.145 215.184 295.176 215.175 295.219 212.233 305.272 206.348 314.214 198.277 320.892 197.966 320.684 197.627 320.522 197.269 320.413 163.942 312.169 128.817 315.297 97.4706 329.298 95.4944 330.184 94.6105 332.504 95.4963 334.48 96.129 335.892 97.5324 336.799 99.0792 336.797 99.6314 336.799 100.177 336.681 100.68 336.453 129.081 323.81 160.773 320.555 191.151 327.161 189.324 328.675 187.466 330.181 185.576 331.68 170.137 343.929 150.926 359.165 129.493 367.254 127.467 368.017 126.442 370.278 127.205 372.305 127.781 373.833 129.243 374.845 130.876 374.845 131.348 374.843 131.816 374.757 132.259 374.592 148.223 368.05 163.18 359.279 176.683 348.539 177.639 355.555 177.835 362.654 177.265 369.712 176.67 378.125 173.256 386.092 167.575 392.325 166.033 393.845 166.015 396.328 167.536 397.871 169.056 399.413 171.539 399.431 173.082 397.91 173.09 397.902 173.098 397.894 173.106 397.886 180.071 390.389 184.286 380.751 185.063 370.548 185.735 361.341 185.356 352.087 183.934 342.966 186.169 341.215 188.347 339.49 190.448 337.824 198.817 331.585 206.427 324.387 213.121 316.378 211.44 349.013 216.193 381.919 220.61 412.218 220.89 414.143 222.54 415.572 224.486 415.573 224.676 415.572 224.867 415.559 225.056 415.535 227.2 415.22 228.682 413.228 228.369 411.084 224.759 388.77 222.276 366.287 220.931 343.722 233.726 349.74 244.775 358.923 253.031 370.402 262.249 383.568 269.693 397.89 275.172 412.999 275.951 415.02 278.221 416.026 280.241 415.247 282.262 414.468 283.268 412.198 282.489 410.177 282.483 410.163 282.478 410.149 282.472 410.134 276.747 394.372 268.964 379.436 259.323 365.714 249.623 352.035 236.21 341.419 220.669 335.12 219.81 311.853 222.995 288.614 230.084 266.437 237.505 270.455 246.425 270.577 253.952 266.764 254.237 267.149 254.591 267.478 254.995 267.734 271.301 277.783 286.701 289.232 301.02 301.952 295.948 318.341 292.827 335.272 291.721 352.393 290.598 370.641 295.963 388.698 306.869 403.371 308.215 405.067 310.682 405.352 312.379 404.006 314.075 402.659 314.36 400.193 313.014 398.496 312.998 398.476 312.982 398.457 312.966 398.438 303.243 385.215 298.497 368.986 299.565 352.608 300.488 337.475 303.165 322.5 307.541 307.985 327.431 326.496 344.971 347.382 359.766 370.172 360.49 371.29 361.731 371.965 363.063 371.964 363.817 371.967 364.554 371.748 365.185 371.336 367.004 370.165 367.53 367.74 366.358 365.92 366.356 365.918 366.355 365.915 366.353 365.913 346.046 334.579 320.725 306.796 291.404 283.676 329.84 285.258 366.865 298.6 397.476 321.898 398.157 322.427 398.996 322.713 399.858 322.71 402.024 322.712 403.781 320.957 403.782 318.792 403.783 317.572 403.216 316.421 402.248 315.679 368.63 290.023 327.609 275.939 285.322 275.532L285.291 275.532C284.166 275.542 283.1 276.041 282.372 276.899 275.319 271.702 268.121 266.717 260.695 262.097 265.326 257.623 267.952 251.467 267.977 245.027 267.977 244.335 267.823 243.683 267.765 243.005 277.661 245.309 287.788 246.474 297.949 246.478 311.956 246.437 325.884 244.38 339.305 240.371 339.553 240.535 339.819 240.67 340.098 240.771 366.86 248.258 390.257 264.673 406.403 287.29 407.137 288.336 408.336 288.956 409.613 288.953 410.422 288.955 411.211 288.703 411.869 288.233 413.638 286.986 414.062 284.542 412.816 282.773 412.816 282.772 412.815 282.772 412.815 282.771Z" fill="#000000" fill-rule="nonzero" fill-opacity="1" transform="matrix(1.00803 0 0 1 -55.6406 -48.3943)"/><text fill="#000000" fill-opacity="1" font-family="Helvetica Neue,Helvetica Neue_MSFontService,sans-serif" font-style="normal" font-variant="normal" font-weight="700" font-stretch="normal" font-size="5" text-anchor="start" direction="ltr" writing-mode="lr-tb" unicode-bidi="normal" text-decoration="none" transform="matrix(4.93531 0 0 4.89598 -55.6406 515)">Created by Softscape</text><text fill="#000000" fill-opacity="1" font-family="Helvetica Neue,Helvetica Neue_MSFontService,sans-serif" font-style="normal" font-variant="normal" font-weight="700" font-stretch="normal" font-size="5" text-anchor="start" direction="ltr" writing-mode="lr-tb" unicode-bidi="normal" text-decoration="none" transform="matrix(4.93531 0 0 4.89598 -55.6406 539)">from the Noun Project</text></g></g></g></svg>